<!-- Nachbau der aktuellen Rework-UI (dunkles Fixed-Theme, kein Light/Dark-Toggle) anhand des tatsaechlich lauffaehigen Frontends unter Rework/apps/frontend. -->
<svg width="900" height="560" viewBox="0 0 900 560" xmlns="http://www.w3.org/2000/svg" font-family="Segoe UI, Arial, sans-serif">
  <rect x="0" y="0" width="900" height="560" fill="#202220"/>
  <rect x="0" y="0" width="220" height="560" fill="#2b2d2a"/>
  <rect x="24" y="24" width="32" height="32" rx="8" fill="#1F4D3A"/>
  <circle cx="40" cy="40" r="10" fill="none" stroke="#F4F1E8" stroke-width="2"/>
  <circle cx="40" cy="40" r="4" fill="#d9b563"/>
  <text x="66" y="45" font-size="15" font-weight="600" fill="#5aa17d">SchützenManager</text>

  <rect x="24" y="72" width="172" height="34" rx="8" fill="#5aa17d"/>
  <text x="40" y="93" font-size="12" fill="#f5f6f0">+ Neue Saison</text>

  <text x="30" y="130" font-size="10" fill="#a3a59a">SAISONS</text>
  <rect x="24" y="140" width="172" height="30" rx="8" fill="#33473c"/>
  <text x="36" y="159" font-size="12" fill="#5aa17d">L.G. Auflage A (2026)</text>

  <text x="30" y="204" font-size="10" fill="#a3a59a">SAISON 2026 · L.G. AUFLAGE A</text>
  <rect x="24" y="216" width="172" height="28" rx="6" fill="#33473c"/>
  <text x="38" y="234" font-size="12" fill="#5aa17d">Übersicht</text>
  <text x="38" y="270" font-size="12" fill="#e9ebe4">Mannschaften</text>
  <text x="38" y="300" font-size="12" fill="#e9ebe4">Wettkämpfe</text>
  <text x="38" y="330" font-size="12" fill="#e9ebe4">Schützen/innen</text>
  <text x="38" y="360" font-size="12" fill="#e9ebe4">PDF-Export</text>
  <line x1="24" y1="382" x2="196" y2="382" stroke="#4a4c45"/>
  <text x="38" y="406" font-size="12" fill="#a3a59a">Einstellungen</text>

  <text x="248" y="56" font-size="20" font-weight="600" fill="#e9ebe4">Saison 2026 · L.G. Auflage A</text>

  <text x="248" y="94" font-size="13" fill="#e9ebe4">Übersicht</text>
  <line x1="248" y1="102" x2="316" y2="102" stroke="#5aa17d" stroke-width="2"/>
  <text x="336" y="94" font-size="13" fill="#a3a59a">Wettkämpfe</text>
  <text x="428" y="94" font-size="13" fill="#a3a59a">Schützen/innen</text>

  <text x="248" y="140" font-size="14" font-weight="600" fill="#e9ebe4">Tabelle</text>
  <g font-size="11" fill="#a3a59a">
    <text x="248" y="164">Mannschaft</text>
    <text x="454" y="164">Gew.</text>
    <text x="494" y="164">Verl.</text>
    <text x="540" y="164">Ringe</text>
    <text x="600" y="164">Punkte</text>
  </g>
  <line x1="248" y1="174" x2="660" y2="174" stroke="#4a4c45"/>
  <g font-size="12" fill="#e9ebe4">
    <text x="248" y="198">Meppen 1</text><text x="454" y="198">4</text><text x="494" y="198">1</text><text x="540" y="198">1842</text><text x="600" y="198">8</text>
    <text x="248" y="222">Geeste 1</text><text x="454" y="222">3</text><text x="494" y="222">2</text><text x="540" y="222">1790</text><text x="600" y="222">6</text>
    <text x="248" y="246">Dalum 6</text><text x="454" y="246">2</text><text x="494" y="246">3</text><text x="540" y="246">1755</text><text x="600" y="246">4</text>
  </g>

  <text x="248" y="300" font-size="14" font-weight="600" fill="#e9ebe4">Mannschaften</text>
  <g font-size="11" fill="#a3a59a">
    <text x="248" y="324">Name</text>
    <text x="400" y="324">Trainingstag</text>
    <text x="540" y="324">Ort</text>
  </g>
  <line x1="248" y1="334" x2="660" y2="334" stroke="#4a4c45"/>
  <text x="248" y="358" font-size="12" fill="#e9ebe4">Meppen 1</text>
  <text x="400" y="358" font-size="12" fill="#e9ebe4">Donnerstag</text>
  <text x="540" y="358" font-size="12" fill="#e9ebe4">Städt. Schießstand</text>
  <rect x="600" y="345" width="80" height="24" rx="6" fill="#34362f" stroke="#4a4c45"/>
  <text x="612" y="361" font-size="10" fill="#e9ebe4">Bearbeiten</text>

  <rect x="700" y="60" width="150" height="36" rx="6" fill="#34362f" stroke="#4a4c45"/>
  <text x="716" y="83" font-size="12" fill="#e9ebe4">PDF exportieren</text>
</svg>
